<svg width="40" height="40" viewBox="0 0 40 40" fill="none" xmlns="http://www.w3.org/2000/svg">
<path d="M9.99967 23.3333H4.99967C4.0792 23.3333 3.33301 24.0795 3.33301 25V30C3.33301 30.9205 4.0792 31.6666 4.99967 31.6666H9.99967C10.9201 31.6666 11.6663 30.9205 11.6663 30V25C11.6663 24.0795 10.9201 23.3333 9.99967 23.3333Z" fill="url(#paint0_linear_114_1146)"/>
<path d="M21.6667 13.3333H16.6667C16.2246 13.3333 15.8007 13.5089 15.4882 13.8215C15.1756 14.134 15 14.558 15 15V30C15 30.442 15.1756 30.8659 15.4882 31.1785C15.8007 31.4911 16.2246 31.6666 16.6667 31.6666H21.6667C22.1087 31.6666 22.5326 31.4911 22.8452 31.1785C23.1577 30.8659 23.3333 30.442 23.3333 30V15C23.3333 14.558 23.1577 14.134 22.8452 13.8215C22.5326 13.5089 22.1087 13.3333 21.6667 13.3333ZM21.6667 30H16.6667V15H21.6667V30Z" fill="url(#paint1_linear_114_1146)"/>
<path d="M33.3327 3.33331H28.3327C27.8907 3.33331 27.4667 3.50891 27.1542 3.82147C26.8416 4.13403 26.666 4.55795 26.666 4.99998V30C26.666 30.442 26.8416 30.8659 27.1542 31.1785C27.4667 31.4911 27.8907 31.6666 28.3327 31.6666H33.3327C33.7747 31.6666 34.1986 31.4911 34.5112 31.1785C34.8238 30.8659 34.9993 30.442 34.9993 30V4.99998C34.9993 4.55795 34.8238 4.13403 34.5112 3.82147C34.1986 3.50891 33.7747 3.33331 33.3327 3.33331ZM33 30H28.5V17.5V5L31 4.99998H33V17.5V30Z" fill="url(#paint2_linear_114_1146)"/>
<defs>
<linearGradient id="paint0_linear_114_1146" x1="3.19967" y1="27.5" x2="37.383" y2="27.5" gradientUnits="userSpaceOnUse">
<stop stop-color="#7F00FF"/>
<stop offset="1" stop-color="#E100FF"/>
</linearGradient>
<linearGradient id="paint1_linear_114_1146" x1="3.2" y1="22.5" x2="37.3833" y2="22.5" gradientUnits="userSpaceOnUse">
<stop stop-color="#7F00FF"/>
<stop offset="1" stop-color="#E100FF"/>
</linearGradient>
<linearGradient id="paint2_linear_114_1146" x1="3.19935" y1="17.5" x2="37.3827" y2="17.5" gradientUnits="userSpaceOnUse">
<stop stop-color="#7F00FF"/>
<stop offset="1" stop-color="#E100FF"/>
</linearGradient>
</defs>
</svg>
